<svg width="32" height="22" viewBox="0 0 32 22" fill="none" xmlns="http://www.w3.org/2000/svg">
<path fill-rule="evenodd" clip-rule="evenodd" d="M-0.152344 1.42773C-0.152344 0.599307 0.519229 -0.0722656 1.34766 -0.0722656H30.8861C31.7145 -0.0722656 32.3861 0.599307 32.3861 1.42773C32.3861 2.25616 31.7145 2.92773 30.8861 2.92773H1.34766C0.519229 2.92773 -0.152344 2.25616 -0.152344 1.42773ZM-0.152344 10.7354C-0.152344 9.907 0.519229 9.23543 1.34766 9.23543H30.8861C31.7145 9.23543 32.3861 9.907 32.3861 10.7354C32.3861 11.5639 31.7145 12.2354 30.8861 12.2354H1.34766C0.519229 12.2354 -0.152344 11.5639 -0.152344 10.7354ZM-0.152344 20.0431C-0.152344 19.2147 0.519229 18.5431 1.34766 18.5431H30.8861C31.7145 18.5431 32.3861 19.2147 32.3861 20.0431C32.3861 20.8715 31.7145 21.5431 30.8861 21.5431H1.34766C0.519229 21.5431 -0.152344 20.8715 -0.152344 20.0431Z" fill="#2E2F42"/>
</svg>
